<?xml version="1.0" encoding="utf-8"?>
<!-- Generator: Adobe Illustrator 23.1.0, SVG Export Plug-In . SVG Version: 6.00 Build 0)  -->
<svg version="1.1" id="Layer_1" xmlns="http://www.w3.org/2000/svg" xmlns:xlink="http://www.w3.org/1999/xlink" x="0px" y="0px"
	 viewBox="0 0 85.97 87.49" style="enable-background:new 0 0 85.97 87.49;" xml:space="preserve">
<style type="text/css">
	.st0{fill:#FFFFFF;}
</style>
<path class="st0" d="M61.04,50.05c-0.76-3.13-2.29-5.9-4.54-8.23c-3.24-3.35-7.16-5.32-11.83-5.72c-0.78-0.07-0.77-0.09-0.85-0.94
	c-0.1-1.05-0.14-2.13-0.46-3.12c-0.31-0.93-0.18-1.75,0.2-2.53c0.39-0.81,0.92-1.57,1.46-2.3c0.49-0.65,0.56-0.62,1.26-0.23
	c0.31,0.17,0.65,0.31,0.99,0.41c1.79,0.54,4.85-1.08,5.99-2.68c0.86-1.21,1.33-2.55,1.46-4.05c0.2-2.2-0.35-4.11-1.73-5.8
	c-0.57-0.71-0.96-0.7-1.64-0.13c-0.75,0.62-1.53,1.22-2.32,1.79c-1.12,0.8-2.34,1.48-3.39,2.36c-1.96,1.64-2.49,3.79-1.31,6.18
	c0.2,0.41,0.09,0.65-0.14,0.98c-0.78,1.09-1.53,2.21-2.32,3.36c-0.73-0.51-0.92-1.11-0.6-2.04c0.37-1.08,0.23-2.23-0.15-3.34
	c-0.58-1.68-1.79-2.79-3.22-3.74c-1.81-1.2-3.85-2.1-5.03-4.1c-0.33-0.56-0.96-0.42-1.23,0.26c-0.4,1.01-0.8,2.04-1.09,3.08
	c-0.55,1.95-0.63,3.9,0.35,5.75c0.95,1.8,2.23,3.18,4.32,3.71c1.23,0.32,2.46,0.28,3.7,0.29c0.38,0,0.88,0.04,1.12,0.27
	c1.63,1.55,2.61,3.39,2.45,5.72c-0.04,0.61-0.34,0.78-0.91,0.81c-3.73,0.19-7.03,1.54-9.94,3.82c-3.52,2.77-5.78,6.33-6.78,10.76
	c-0.98,4.38-0.37,8.53,1.66,12.42c2.47,4.73,6.31,7.86,11.51,9.36c2.78,0.8,5.58,0.88,8.35,0.41c3.63-0.62,6.83-2.28,9.48-4.87
	c2.92-2.85,4.77-6.27,5.47-10.34C61.76,55.08,61.65,52.55,61.04,50.05z M45.86,20.66c0.33-0.38,0.66-0.79,1.07-1.07
	c1.33-0.91,2.68-1.78,4.03-2.66l1.18-0.78c0,0,0.84,1.16,0.97,1.68c0,0,0,0,0,0c0.04,0.09,0.07,0.18,0.09,0.27
	c0.45,2.43-0.01,4.63-1.81,6.42c-1.33,1.32-2.67,1.65-4.33,1.1l0,0c0,0-1.36-0.11-1.74-1.71c0,0,0,0,0,0
	C44.96,22.74,45.01,21.64,45.86,20.66z M39.66,27.46c-0.65,0.9-8.02,0.85-8.02-4.36c0,0,0,0,0,0c-0.45-2.05,0.51-4.98,0.51-4.98
	l0.87,0.65c1.56,1.02,3.05,1.99,4.53,2.97c1.19,0.79,2.06,1.85,2.4,3.26C40.13,25.77,39.93,27.08,39.66,27.46z M42.32,59.34
	c0,0.43-0.16,0.68-0.63,0.72c-2.04,0.15-4.04,0.53-5.98,1.18c-0.09,0.03-0.21,0-0.39,0c-0.09-0.29-0.23-0.59-0.27-0.91
	c-0.17-1.44-0.31-2.89-0.45-4.34c-0.06-0.56,0.2-0.77,0.77-0.76c2.04,0.02,4.08,0.02,6.12,0c0.53-0.01,0.83,0.13,0.82,0.72
	C42.3,57.08,42.31,58.21,42.32,59.34z M41.61,53.89c-2.12-0.01-4.23-0.01-6.35,0c-0.45,0-0.7-0.18-0.66-0.64
	c0.17-1.77,0.14-3.56,0.72-5.38c0.4,0.08,0.7,0.09,0.97,0.19c1.57,0.65,3.24,0.81,4.9,1.01c1.09,0.13,1.11,0.12,1.12,1.16
	c0.01,0.98-0.01,1.97,0.01,2.95C42.33,53.69,42.12,53.89,41.61,53.89z M42.24,37.5c0.03,0.37,0.08,0.65,0.08,0.94
	c0.01,2.74,0.01,5.47,0,8.21c0,1.08-0.09,1.17-1.11,1.05c-1.66-0.19-3.32-0.45-4.9-1.05c-0.41-0.16-0.72-0.29-0.54-0.85
	c0.73-2.18,1.59-4.29,3.06-6.1C39.74,38.58,40.84,37.84,42.24,37.5z M30.87,42.41c0.91-0.77,1.77-1.63,2.78-2.24
	c1.3-0.78,2.72-1.35,4.09-1.99c0.08-0.04,0.2,0.01,0.5,0.04c-2.02,2.19-3.06,4.78-3.95,7.49c-1.37-0.58-2.36-1.43-3.38-2.24
	C30.45,43.09,30.45,42.76,30.87,42.41z M25.88,53c0.24-2.3,0.81-4.51,1.99-6.53c0.47-0.81,0.97-1.61,1.43-2.36
	c1.47,0.97,2.77,1.84,4.07,2.69c0.36,0.24,0.55,0.49,0.48,0.98c-0.24,1.81-0.43,3.62-0.63,5.43c-0.02,0.18-0.05,0.36-0.09,0.67
	c-0.58,0-1.15,0-1.72,0c-1.57,0-3.14,0.01-4.71-0.01C25.87,53.87,25.8,53.8,25.88,53z M29.32,65.05c-0.5-0.79-1.08-1.62-1.56-2.5
	c-1.01-1.84-1.56-3.84-1.85-5.91c-0.04-0.29-0.06-0.58-0.06-0.87c0-0.35,0.17-0.53,0.54-0.53c2.05,0,4.09,0.01,6.14-0.01
	c0.56,0,0.66,0.33,0.7,0.77c0.08,0.94,0.15,1.89,0.26,2.83c0.09,0.83,0.2,1.66,0.34,2.49c0.07,0.39,0.06,0.72-0.3,0.96
	C32.16,63.18,30.81,64.07,29.32,65.05z M37.36,70.85c-2.31-0.84-4.39-2.09-6.18-3.78c-0.82-0.78-0.83-0.86,0.04-1.58
	c0.92-0.75,1.81-1.56,3.1-1.96c0.88,2.66,1.89,5.21,3.97,7.44C37.81,70.92,37.57,70.93,37.36,70.85z M42.32,70.65
	c-0.01,1.12-0.18,1.2-1.21,0.67c-1.66-0.85-2.77-2.23-3.59-3.83c-0.66-1.29-1.12-2.68-1.71-4c-0.23-0.52,0.01-0.79,0.4-0.93
	c1.75-0.66,3.59-0.96,5.45-1.1c0.59-0.04,0.66,0.31,0.66,0.76c0,1.46,0,2.92,0,4.38C42.32,67.95,42.33,69.3,42.32,70.65z
	 M47.96,38.1c0.66,0.24,1.34,0.44,1.97,0.72c1.9,0.86,3.6,2.03,5.12,3.45c0.64,0.6,0.64,0.72-0.05,1.25c-1,0.77-2.03,1.48-3.25,2.36
	c-0.92-2.95-2.02-5.49-3.92-7.62C47.87,38.22,47.91,38.16,47.96,38.1z M43.68,38.07c0-0.17,0.06-0.35,0.12-0.64
	c1.52,0.43,2.59,1.28,3.46,2.38c1.4,1.76,2.3,3.79,2.94,5.94c0.15,0.51-0.02,0.73-0.48,0.9c-1.63,0.59-3.31,0.9-5.02,1.06
	c-0.88,0.08-1-0.03-1.01-0.86C43.66,43.92,43.67,41,43.68,38.07z M43.67,49.89c-0.01-0.57,0.28-0.75,0.8-0.79
	c1.82-0.15,3.62-0.41,5.35-1.06c0.77-0.29,0.93-0.19,1.04,0.59c0.2,1.48,0.35,2.97,0.46,4.46c0.05,0.75-0.03,0.79-0.8,0.81
	c-1.02,0.02-2.05,0-3.07,0c-1.02,0-2.05-0.02-3.07,0.01c-0.52,0.01-0.72-0.21-0.71-0.72C43.68,52.08,43.69,50.98,43.67,49.89z
	 M50.68,61.16c-2.22-0.39-4.29-0.76-6.37-1.11c-0.39-0.06-0.62-0.22-0.62-0.62c-0.01-1.21-0.01-2.41-0.01-3.62
	c0-0.39,0.18-0.59,0.61-0.59c2.16,0.01,4.31,0.01,6.47,0.01c0.34,0,0.57,0.1,0.58,0.49C51.35,57.59,51.3,59.44,50.68,61.16z
	 M45.84,70.76c-0.39,0.32-0.87,0.54-1.33,0.76c-0.58,0.27-0.82,0.13-0.83-0.51c-0.02-1.5-0.01-3-0.01-4.5
	c0-1.43-0.02-2.85,0.01-4.28c0.01-0.74,0.13-0.84,0.84-0.78c1.79,0.16,3.53,0.53,5.24,1.07c0.32,0.1,0.61,0.29,0.48,0.72
	C49.39,66.11,48.21,68.79,45.84,70.76z M47.98,70.93c1.79-2.18,2.82-4.69,3.7-7.4c1.57,0.56,2.72,1.56,3.92,2.68
	C53.54,68.62,50.94,70.04,47.98,70.93z M60.12,55.92c-0.1,0.87-0.12,1.77-0.35,2.6c-0.6,2.19-1.43,4.28-2.83,6.1
	c-0.11,0.14-0.23,0.27-0.31,0.36c-1.45-0.96-2.78-1.84-4.12-2.7c-0.34-0.22-0.52-0.42-0.39-0.88c0.44-1.52,0.55-3.09,0.57-4.67
	c0-0.29,0.03-0.58,0.07-0.87c0.06-0.41,0.26-0.64,0.72-0.64c2.01,0.02,4.02,0.01,6.03,0.01C60,55.24,60.17,55.49,60.12,55.92z
	 M59.09,53.89c-1.71,0.01-3.43,0.01-5.14,0c-1.15,0-1.17-0.04-1.26-1.25c-0.1-1.31-0.22-2.61-0.35-3.92
	c-0.05-0.5-0.36-1.08-0.19-1.46c0.17-0.38,0.8-0.56,1.21-0.85c1.04-0.72,2.07-1.46,3.3-2.33c0.58,0.93,1.26,1.83,1.75,2.83
	c0.9,1.84,1.5,3.79,1.69,5.84C60.2,53.82,60.15,53.88,59.09,53.89z"/>
</svg>
