<?xml version="1.0" encoding="utf-8"?>
<!-- Generator: Adobe Illustrator 23.1.0, SVG Export Plug-In . SVG Version: 6.00 Build 0)  -->
<svg version="1.1" id="Layer_1" xmlns="http://www.w3.org/2000/svg" xmlns:xlink="http://www.w3.org/1999/xlink" x="0px" y="0px"
	 viewBox="0 0 111.67 111.67" style="enable-background:new 0 0 111.67 111.67;" xml:space="preserve">
<style type="text/css">
	.st0{fill:#FFFFFF;}
</style>
<path class="st0" d="M84.28,83.12h-1.71c-0.32-1.3-1.19-2.39-2.33-2.93c-0.82-0.39-1.62-0.43-2.19-0.38
	c-0.36-1.04-1.11-1.89-2.09-2.36c-0.88-0.42-1.73-0.42-2.35-0.32c-0.01-1.24,0-7.01,0.01-9.45l2.76-2.76h2.33
	c3.25,0,5.9-2.64,5.9-5.9v-2.32c0-0.84-0.69-1.53-1.53-1.53h-2.32c-3.25,0-5.9,2.64-5.9,5.9v2.33l-1.25,1.25v-9.24l1.65-1.65
	c1.11-1.11,1.72-2.59,1.72-4.17c0-1.58-0.61-3.06-1.72-4.17l-1.64-1.64c-0.29-0.29-0.67-0.45-1.08-0.45c-0.41,0-0.79,0.16-1.08,0.45
	l-1.64,1.64c-2.3,2.3-2.3,6.04,0,8.34l1.65,1.65V69.8l-1.23-1.23v-3.45c0-4.32-3.52-7.84-7.84-7.84h-3.44
	c-0.84,0-1.53,0.68-1.53,1.53v3.44c0,4.32,3.52,7.84,7.84,7.84h3.45l2.74,2.74v2.56c-1.25-1.06-3.19-2.23-5.79-2.44
	c-0.05,0-0.55-0.04-1.3,0.01c-0.59,0.04-1.03,0.55-0.99,1.14c0.04,0.59,0.55,1.03,1.14,0.99c0.61-0.04,0.98-0.02,0.99-0.02
	c3.4,0.26,5.44,2.65,6.16,3.66c0.42,0.59,1.18,0.83,1.87,0.6c0.37-0.13,0.93-0.22,1.49,0.04c0.52,0.25,0.91,0.75,1.05,1.34
	c0.19,0.86,1.03,1.41,1.91,1.24c0.33-0.06,0.83-0.09,1.32,0.15c0.42,0.2,0.77,0.55,0.99,1H54.02c0.11-0.36,0.33-0.66,0.6-0.84
	c0.36-0.23,0.76-0.24,1.03-0.21c0.84,0.1,1.63-0.47,1.8-1.3c0.2-1,0.59-1.9,1.15-2.68c0.63-0.88,1.46-1.58,2.48-2.08
	c0.53-0.26,0.74-0.91,0.48-1.43c-0.26-0.53-0.91-0.74-1.43-0.48c-1.33,0.66-2.43,1.59-3.26,2.75c-0.66,0.92-1.13,1.95-1.42,3.08
	c-0.07,0-0.13,0-0.2,0c-0.34-1.09-1.11-1.98-2.13-2.47c-1.05-0.5-2.05-0.42-2.75-0.24c-0.86-1.13-3.6-4.2-7.87-4.28v-5.14l2.75-2.75
	h2.33c3.25,0,5.9-2.64,5.9-5.9v-2.32c0-0.84-0.68-1.53-1.53-1.53h-2.32c-3.25,0-5.9,2.64-5.9,5.9v2.33l-1.24,1.24V52.34l2.75-2.75
	h2.33c3.25,0,5.9-2.64,5.9-5.9v-2.32c0-0.84-0.68-1.53-1.53-1.53h-2.32c-3.25,0-5.9,2.64-5.9,5.9v2.33l-1.24,1.24V38.49l1.65-1.65
	c2.3-2.3,2.3-6.04,0-8.34l-1.64-1.64c-0.29-0.29-0.67-0.45-1.08-0.45c-0.41,0-0.79,0.16-1.08,0.45l-1.64,1.64
	c-2.3,2.3-2.3,6.04,0,8.34l1.65,1.65v15.98l-1.24-1.24v-3.45c0-1.19-0.26-2.34-0.78-3.4c-0.26-0.53-0.9-0.75-1.43-0.5
	c-0.26,0.12-0.45,0.34-0.54,0.61c-0.09,0.26-0.08,0.55,0.04,0.8c0.43,0.82,0.68,1.76,0.68,2.75v0v0.31v2.39H34.7h-0.31
	c-0.21,0-0.41-0.01-0.61-0.03c-0.2-0.02-0.4-0.05-0.59-0.09c-1.37-0.28-2.56-1.03-3.41-2.07c-0.61-0.73-1.04-1.62-1.23-2.6
	c-0.07-0.38-0.11-0.76-0.11-1.16v0v-2.7h0.02v-0.02h2.82c1.02,0,2.02,0.27,2.9,0.79c0.25,0.15,0.53,0.19,0.81,0.11
	c0.28-0.07,0.51-0.25,0.65-0.49c0.15-0.25,0.19-0.53,0.11-0.81c-0.07-0.28-0.25-0.51-0.49-0.65c-1.2-0.71-2.58-1.09-3.98-1.09h-3.44
	c-0.84,0-1.53,0.69-1.53,1.53v3.44c0,4.32,3.52,7.84,7.84,7.84h3.45l2.75,2.75v14.15l-0.66-0.66v-2.92c0-3.82-3.1-6.92-6.92-6.92
	h-2.91c-0.84,0-1.53,0.68-1.53,1.53v2.91c0,3.82,3.1,6.92,6.92,6.92h2.92l0.91,0.91c-2.16,0.61-3.86,1.77-5.06,3.45
	c-0.66,0.91-1.13,1.95-1.42,3.08c-0.54,0-1.28,0.1-1.99,0.57c-0.87,0.56-1.47,1.54-1.62,2.63h-1.62c-0.59,0-1.07,0.48-1.07,1.07
	c0,0.59,0.48,1.07,1.07,1.07h56.89c0.59,0,1.07-0.48,1.07-1.07C85.35,83.6,84.87,83.12,84.28,83.12z M76.73,61.42v-0.2
	c0-0.14,0.01-0.27,0.02-0.4c0.01-0.13,0.03-0.26,0.06-0.39c0.37-1.79,1.96-3.15,3.86-3.15h0h1.79v0.04v1.54v0.16v0.04
	c0,0.14-0.01,0.27-0.02,0.4c-0.01,0.13-0.03,0.26-0.06,0.39c-0.37,1.79-1.96,3.15-3.86,3.15h0h-0.2h-1.59V61.42z M68.16,65.3v0.31
	V68h-2.39h-0.31c-0.21,0-0.41-0.01-0.61-0.03c-0.2-0.02-0.4-0.05-0.59-0.09c-0.48-0.1-0.95-0.26-1.38-0.47
	c-1.22-0.57-2.21-1.56-2.78-2.78c-0.38-0.78-0.59-1.65-0.59-2.58v0v-2.7h2.39h0.31c0.21,0,0.41,0.01,0.61,0.03
	c0.2,0.02,0.4,0.05,0.59,0.09c0.49,0.1,0.95,0.26,1.38,0.47c1.22,0.57,2.21,1.56,2.78,2.78C67.95,63.5,68.16,64.38,68.16,65.3
	L68.16,65.3z M72.54,53.51l-1.07-1.07l-0.14-0.14c-0.09-0.09-0.18-0.19-0.26-0.29c-0.08-0.1-0.16-0.2-0.22-0.31
	c-0.81-1.24-0.82-2.85-0.04-4.09c0.02-0.03,0.03-0.06,0.05-0.08c0.03-0.04,0.05-0.08,0.08-0.11c0.05-0.06,0.09-0.13,0.14-0.19
	c0.02-0.02,0.03-0.04,0.05-0.06c0.06-0.07,0.12-0.14,0.19-0.21c0,0,0,0,0.01-0.01l0,0l0,0c0,0,0,0,0,0l1.21-1.21h0l0,0l0.15,0.15
	l1.06,1.06c0,0,0,0,0,0l0.01,0.01c0.09,0.09,0.18,0.19,0.26,0.29c0.08,0.1,0.16,0.2,0.22,0.31c0.02,0.03,0.03,0.05,0.05,0.08
	c0.02,0.03,0.04,0.07,0.06,0.1c0.05,0.08,0.09,0.17,0.13,0.25c0,0.01,0.01,0.02,0.01,0.03c0.66,1.4,0.42,3.13-0.74,4.29l0,0
	l-0.14,0.14L72.54,53.51z M45.62,61.53v-0.2c0-0.13,0.01-0.27,0.02-0.4c0.01-0.13,0.03-0.26,0.06-0.39
	c0.36-1.77,1.93-3.11,3.81-3.11h0h0.13h1.64h0.07v1.71c0,0.84-0.28,1.62-0.75,2.25c-0.7,1.03-1.88,1.7-3.21,1.7h0h-0.2h-1.57V61.53z
	 M45.88,45.94v-0.19v0c0-1.7,1.13-3.14,2.69-3.6c0.1-0.03,0.21-0.06,0.32-0.08c0.12-0.03,0.25-0.04,0.37-0.06
	c0.13-0.01,0.25-0.02,0.38-0.02h0.19h1.51v1.71v0c0,1.7-1.13,3.14-2.69,3.6c-0.1,0.03-0.21,0.06-0.32,0.08
	c-0.12,0.03-0.25,0.04-0.37,0.06c-0.13,0.01-0.25,0.02-0.38,0.02h-0.19h-1.51V45.94z M37.56,68.14L37.56,68.14v0.25v0.45v1.51h-1.51
	l0,0h-0.78c-2.64,0-4.78-2.15-4.78-4.78v-0.09v0v-2.21h1.96h0.25h0.09c2.64,0,4.78,2.15,4.78,4.78V68.14z M40.36,35.5l-0.14-0.14
	c-0.09-0.09-0.18-0.19-0.26-0.29c-0.08-0.1-0.16-0.2-0.22-0.31c-0.81-1.23-0.82-2.84-0.04-4.09c0.02-0.03,0.04-0.06,0.06-0.09
	c0.03-0.04,0.05-0.07,0.08-0.11c0.05-0.06,0.09-0.13,0.14-0.19c0.02-0.02,0.03-0.04,0.05-0.06c0.06-0.07,0.12-0.14,0.19-0.21
	c0,0,0,0,0.01-0.01l0,0l0,0c0,0,0,0,0,0l0.98-0.98l0.23-0.23l0,0l0,0l1.21,1.21c0,0,0,0,0,0l0,0c0.04,0.04,0.07,0.08,0.11,0.12
	c0,0,0.01,0.01,0.01,0.01c0.05,0.05,0.09,0.1,0.14,0.16c0.08,0.1,0.16,0.2,0.22,0.31c0.02,0.03,0.03,0.05,0.05,0.08
	c0.02,0.04,0.04,0.07,0.06,0.11c0.05,0.08,0.09,0.16,0.13,0.25c0,0.01,0.01,0.02,0.01,0.03c0.66,1.4,0.42,3.13-0.74,4.29l0,0
	l-0.14,0.14l-1.07,1.07L40.36,35.5z M51.84,83.12H41.51c-0.05,0-0.1,0-0.15,0H31.19c0.11-0.36,0.33-0.66,0.6-0.84
	c0.36-0.23,0.76-0.24,1.03-0.21c0.84,0.1,1.63-0.47,1.8-1.3c0.21-1,0.59-1.9,1.15-2.68c2.37-3.3,6.87-3.01,6.92-3
	c3.41,0.27,5.44,2.65,6.16,3.66c0.42,0.59,1.19,0.83,1.87,0.6c0.37-0.13,0.93-0.22,1.5,0.04c0.51,0.24,0.88,0.7,1.03,1.26
	C52.48,81.23,51.98,82.11,51.84,83.12z"/>
</svg>
