<?xml version="1.0" encoding="utf-8"?>
<!-- Generator: Adobe Illustrator 23.1.0, SVG Export Plug-In . SVG Version: 6.00 Build 0)  -->
<svg version="1.1" id="Layer_1" xmlns="http://www.w3.org/2000/svg" xmlns:xlink="http://www.w3.org/1999/xlink" x="0px" y="0px"
	 viewBox="0 0 111.67 111.67" style="enable-background:new 0 0 111.67 111.67;" xml:space="preserve">
<style type="text/css">
	.st0{fill:#FFFFFF;}
</style>
<g>
	<path class="st0" d="M71.59,66.39c-0.13-0.69-0.26-1.41-0.41-2.12c-0.05-0.23-0.03-0.26,0.16-0.39c1.73-1.11,3.2-2.46,4.4-3.99
		c1.54-1.99,2.44-4.02,2.75-6.22c0.09-0.66-0.05-1.21-0.4-1.6c-0.36-0.4-0.91-0.59-1.58-0.55c-1.4,0.07-2.81,0.15-4.2,0.25
		c-0.22,0.02-0.25-0.01-0.33-0.16c-1.79-3.21-3.64-6.48-5.47-9.71c-0.18-0.31-0.21-0.54-0.12-0.86c0.18-0.64,0.06-1.25-0.32-1.69
		c-0.39-0.46-1.01-0.67-1.71-0.59c-0.49,0.06-0.98,0.12-1.47,0.17c-0.67,0.08-1.34,0.16-2,0.24c-0.41,0.05-0.81,0.09-1.24,0.13
		l-0.06,0.01c0.26-3.78-0.9-6.99-3.45-9.55c-2.77-2.78-6.15-3.94-10.04-3.45c-3.5,0.44-6.61,2.38-8.53,5.33
		c-1.88,2.88-2.43,6.47-1.52,9.88c-0.21,0.11-0.42,0.22-0.63,0.33c-0.72,0.38-1.47,0.78-2.21,1.15c-0.82,0.41-1.22,1.05-1.21,1.97
		c0.02,2.39,0.02,4.77,0,7c0,0.63,0.19,1.14,0.61,1.59c1.54,1.67,3.09,3.37,4.52,4.95c0.4,0.44,0.89,0.65,1.51,0.65
		c0.37,0,0.74,0,1.11,0l0.02,0c0.87,0,1.76,0.01,2.64-0.02c0.55-0.02,1.05-0.27,1.3-0.42c0.63-0.37,1.21-0.81,1.74-1.22
		c0.17-0.13,0.19-0.12,0.32-0.03c0.28,0.18,0.56,0.34,0.84,0.5c0.29,0.16,0.58,0.33,0.86,0.51c0.81,0.54,1.57,0.76,2.37,0.7
		c0,0.01-0.01,0.02-0.01,0.03c-0.04,0.14-0.08,0.29-0.12,0.43l-0.01,0.02c-0.14,0.5-0.28,1.03-0.43,1.53
		c-0.25,0.8-0.1,1.51,0.45,2.12c0.35,0.39,0.71,0.8,1.05,1.2c0.39,0.45,0.79,0.91,1.2,1.36c0.19,0.21,0.25,0.4,0.23,0.69
		c-0.1,1.4-0.46,2.72-1.07,3.94c-0.37,0.74-0.38,1.42-0.04,2.17c1.73,3.71,3.45,7.44,5.11,11.1c0.4,0.88,1.06,1.29,2.03,1.28
		c1.19-0.02,2.35-0.03,3.53,0c0.03,0,0.06,0,0.09,0c0,0,0,0,0,0c0.91,0,1.57-0.4,2.02-1.22c1.13-2.08,2.32-4.16,3.32-5.93
		c0.36-0.63,0.51-1.23,0.47-1.89c-0.01-0.27-0.01-0.54-0.01-0.81c0-0.26,0.01-0.54-0.01-0.81c-0.01-0.22,0.05-0.35,0.22-0.52
		c0.63-0.59,1.27-1.2,1.89-1.79l0.03-0.03c0.51-0.49,1.03-0.99,1.55-1.48c0.57-0.54,0.79-1.2,0.63-1.96
		C71.86,67.85,71.72,67.11,71.59,66.39z M69.23,64.43c0.25,1.37,0.54,2.91,0.84,4.41c0.04,0.18,0.01,0.23-0.1,0.33
		c-0.54,0.51-1.07,1.02-1.59,1.53c-0.63,0.61-1.28,1.23-1.93,1.85c-0.49,0.46-0.72,0.99-0.71,1.64c0.02,0.73,0.02,1.33-0.01,1.94v0
		c-0.01,0.25-0.07,0.48-0.16,0.64c-0.69,1.26-1.43,2.57-2.08,3.73c-0.44,0.79-0.89,1.59-1.33,2.38c-0.1,0.17-0.14,0.18-0.26,0.18
		c-0.6-0.01-1.2-0.01-1.84-0.01c-0.58,0-1.17,0-1.82,0.01c-0.15,0-0.17-0.01-0.23-0.15c-1.71-3.74-3.43-7.49-5.13-11.15
		c-0.06-0.12-0.07-0.21,0.03-0.41c0.69-1.4,1.12-2.93,1.26-4.55c0.09-0.98-0.15-1.69-0.76-2.33c-0.44-0.46-0.87-0.95-1.28-1.43
		l-0.01-0.01c-0.28-0.32-0.57-0.66-0.86-0.98c-0.13-0.15-0.14-0.21-0.09-0.37c0.22-0.68,0.4-1.36,0.59-2.11
		c0.18-0.67,0.08-1.29-0.27-1.73c-0.34-0.43-0.91-0.66-1.58-0.64c-0.5,0.02-0.94-0.11-1.36-0.39c-0.37-0.24-0.76-0.46-1.13-0.68
		c-0.25-0.14-0.5-0.29-0.74-0.44c-0.76-0.46-1.53-0.42-2.24,0.11c-0.13,0.1-0.28,0.2-0.43,0.3c-0.24,0.16-0.49,0.32-0.72,0.53
		c-0.5,0.45-1.05,0.62-1.85,0.56c-0.71-0.05-1.43-0.03-2.13-0.02c-0.14,0-0.28,0.01-0.43,0.01c-0.2,0-0.31-0.04-0.44-0.18
		c-1.52-1.68-3.02-3.32-4.29-4.7c-0.14-0.15-0.19-0.29-0.19-0.49c0.01-2.3,0.01-4.59,0-6.81c0-0.19,0.02-0.22,0.16-0.29
		c0.63-0.31,1.26-0.64,1.88-0.97c0.25-0.13,0.5-0.27,0.76-0.4c0.04,0.07,0.08,0.14,0.12,0.22c0.22,0.4,0.46,0.82,0.72,1.22
		c1.68,2.54,4.03,4.23,6.99,5.01c0.22,0.06,0.33,0.14,0.43,0.32c0.48,0.87,0.99,1.75,1.49,2.6l0.16,0.28
		c0.33,0.56,0.7,0.68,0.96,0.68c0.25,0,0.62-0.12,0.95-0.67c0.64-1.09,1.19-2.06,1.7-2.96c0.08-0.13,0.14-0.18,0.28-0.22
		c4.36-1.2,7.27-4.02,8.64-8.39c0.01-0.03,0.03-0.09,0.04-0.12c0,0,0.01,0,0.01,0c1.09-0.12,2.19-0.25,3.26-0.37
		c0.65-0.08,1.29-0.15,1.94-0.23c-0.28,0.85,0.02,1.55,0.31,2.06c2.04,3.59,3.84,6.79,5.51,9.78c0.5,0.9,1.21,1.27,2.25,1.16
		c0.98-0.1,1.98-0.15,2.95-0.2c0.29-0.01,0.58-0.03,0.87-0.05c0.09-0.01,0.17-0.01,0.22-0.01c-0.01,0.06-0.02,0.14-0.04,0.26
		c-0.38,1.97-1.27,3.76-2.73,5.46c-1.03,1.21-2.26,2.27-3.65,3.17C69.32,62.87,69.05,63.48,69.23,64.43z M49.83,47.98
		c-0.51,0.12-0.86,0.38-1.11,0.84c-0.3,0.55-0.62,1.1-0.94,1.63c-0.05,0.09-0.11,0.18-0.16,0.27c-0.02-0.03-0.04-0.06-0.05-0.09
		l-0.01-0.02c-0.34-0.58-0.66-1.13-0.96-1.69c-0.28-0.53-0.67-0.82-1.25-0.96c-4.14-0.97-7.09-4.24-7.7-8.52
		c-0.56-3.94,1.47-7.97,5.04-10.02c1.49-0.85,3.18-1.3,4.87-1.3c1.48,0,2.93,0.33,4.32,0.98c3.01,1.41,5.06,4.06,5.62,7.27
		C58.46,41.77,55.16,46.76,49.83,47.98z"/>
	<path class="st0" d="M79.54,71.73c-0.38-0.88-0.72-1.58-1.09-2.21c-0.35-0.59-1.03-0.93-1.73-0.85c-0.64,0.07-1.15,0.46-1.34,1.05
		c-0.28,0.83-0.76,1.22-1.73,1.38c-0.06,0.01-0.11,0.03-0.14,0.04l-0.02,0.01c-0.96,0.31-1.45,1.17-1.22,2.14
		c0.05,0.19,0.1,0.38,0.15,0.57c0.08,0.28,0.16,0.56,0.2,0.84c0.06,0.35,0.07,0.65,0.04,0.91c-0.06,0.4-0.14,0.81-0.23,1.2
		c-0.06,0.28-0.12,0.57-0.17,0.86c-0.1,0.55,0.02,1.07,0.35,1.47c0.32,0.4,0.8,0.63,1.36,0.66c0.13,0.01,0.28,0.01,0.45,0.01
		c0.12,0,0.24,0,0.36,0l0.15,0l0.2,0c0.12,0,0.23,0,0.35,0l0.02,0c0.25,0,0.51,0,0.77,0c0.9-0.02,1.52-0.49,1.77-1.33
		c0.63-2.16,1.13-3.94,1.57-5.6C79.63,72.73,79.75,72.22,79.54,71.73z M74.36,77.11c0.09-0.45,0.19-0.91,0.25-1.37
		c0.05-0.38,0.04-0.81-0.04-1.29c-0.06-0.34-0.15-0.67-0.24-0.99c-0.04-0.13-0.07-0.26-0.11-0.39c-0.01-0.04-0.02-0.08-0.03-0.11
		c0.03-0.01,0.08-0.02,0.13-0.04l0.04-0.01c0.35-0.11,0.72-0.22,1.08-0.31c0.59-0.16,1-0.53,1.24-1.11
		c0.08-0.19,0.16-0.39,0.26-0.61c0.23,0.45,0.47,0.94,0.72,1.49c0,0.02,0,0.07-0.01,0.12c-0.19,0.7-0.39,1.4-0.59,2.1l0,0.02
		c-0.29,1.01-0.58,2.06-0.86,3.1c-0.04,0.13-0.06,0.15-0.06,0.15c0,0-0.03,0.01-0.12,0c-0.11-0.01-0.23-0.02-0.36-0.02
		c-0.09,0-0.18,0-0.27,0l-0.01,0c-0.08,0-0.16,0-0.24,0c-0.11,0-0.21,0-0.32,0c-0.2,0-0.41,0-0.61,0
		C74.26,77.61,74.31,77.36,74.36,77.11z"/>
	<path class="st0" d="M47.67,30.28c-0.01,0-0.01,0-0.02,0c-2.17,0-4.2,0.83-5.71,2.35c-1.5,1.5-2.33,3.51-2.33,5.64
		c0,2.16,0.83,4.19,2.33,5.71c1.5,1.52,3.51,2.36,5.66,2.37h0.01c4.43,0,8.06-3.59,8.07-8c0.01-2.15-0.83-4.18-2.34-5.71
		C51.82,31.12,49.81,30.28,47.67,30.28z M47.64,44.39l-0.02,0c-1.62-0.01-3.15-0.64-4.29-1.8c-1.14-1.15-1.77-2.68-1.76-4.31
		c0.01-3.33,2.74-6.05,6.09-6.05l0.02,0c1.61,0.01,3.12,0.64,4.27,1.8c1.15,1.15,1.78,2.67,1.77,4.28
		C53.7,41.66,50.98,44.39,47.64,44.39z"/>
</g>
</svg>
