<?xml version="1.0" encoding="utf-8"?>
<!-- Generator: Adobe Illustrator 23.1.0, SVG Export Plug-In . SVG Version: 6.00 Build 0)  -->
<svg version="1.1" id="Layer_1" xmlns="http://www.w3.org/2000/svg" xmlns:xlink="http://www.w3.org/1999/xlink" x="0px" y="0px"
	 viewBox="0 0 111.67 111.67" style="enable-background:new 0 0 111.67 111.67;" xml:space="preserve">
<style type="text/css">
	.st0{fill:#FFFFFF;}
</style>
<g>
	<g>
		<path class="st0" d="M53.54,68.08c-0.04,0.02-0.09,0.03-0.11,0.06c-1.21,1.79-2.99,2.71-5.03,3.08
			c-5.67,1.01-10.51-0.54-14.36-4.89c-2.17-2.45-3.57-5.35-4.62-8.42c-0.79-2.33-1.34-4.71-1.65-7.15
			c-0.01-0.09-0.02-0.17-0.03-0.26c-0.05-0.91,0.66-1.36,1.5-0.99c1.22,0.53,2.43,1.1,3.68,1.53c1.17,0.41,2.4,0.66,3.61,0.97
			c0.14,0.04,0.3,0.06,0.43,0.12c0.42,0.19,0.63,0.62,0.54,1.06c-0.09,0.44-0.45,0.76-0.92,0.74c-0.4-0.02-0.81-0.1-1.21-0.19
			c-1.72-0.39-3.41-0.9-5.04-1.58c-0.1-0.04-0.2-0.07-0.36-0.13c0.01,0.19,0.01,0.33,0.03,0.46c0.68,3.51,1.76,6.87,3.61,9.95
			c1.2,2,2.67,3.75,4.63,5.04c3.03,1.98,6.35,2.52,9.88,1.82c0.6-0.12,1.2-0.35,1.76-0.61c1.81-0.86,2.7-2.34,2.73-4.32
			c0.02-1.37-0.7-2.4-1.64-3.31c-0.15-0.15-0.34-0.27-0.49-0.42c-0.4-0.37-0.46-0.94-0.16-1.34c0.28-0.36,0.83-0.46,1.29-0.21
			c0.06,0.03,0.11,0.07,0.16,0.11c2.02,1.65,3.15,3.67,2.68,6.37c-0.06,0.31-0.04,0.56,0.22,0.81c2.09,2.08,3.61,4.52,4.67,7.27
			c0.03,0.08,0.08,0.14,0.18,0.22c0.45-3.81,1.2-7.55,2.6-11.15c-0.26-0.15-0.46-0.27-0.66-0.39c-1.89-1.11-3.22-2.69-4.01-4.72
			c-1.66-4.3-0.88-8.31,1.51-12.1c1.12-1.78,2.61-3.24,4.26-4.54c0.39-0.31,0.77-0.35,1.26-0.24c0.62,0.15,1.27,0.24,1.9,0.23
			c0.8-0.01,1.42-0.45,1.91-1.07c0.5-0.64,0.83-1.37,0.97-2.16c0.1-0.56,0.39-0.91,0.84-1.22c2.73-1.85,5.3-3.9,7.56-6.31
			c0.99-1.05,1.92-2.15,2.63-3.41c0.22-0.39,0.55-0.61,1.01-0.55c0.45,0.06,0.73,0.35,0.85,0.78c0.53,1.99,1.05,3.99,1.57,5.98
			c0.1,0.39,0.18,0.8,0.24,1.2c0.11,0.72-0.15,1.08-0.85,1.28c-0.43,0.13-0.87,0.27-1.26,0.47c-0.81,0.42-1.33,1.08-1.4,2.02
			c-0.04,0.58-0.33,0.94-0.89,1.13c-0.36,0.12-0.71,0.31-1.02,0.54c-0.83,0.61-1.19,1.44-1.06,2.47c0.08,0.66-0.15,1.1-0.65,1.23
			c-0.59,0.16-1.11-0.16-1.23-0.81c-0.27-1.47,0.1-2.79,1.14-3.86c0.42-0.44,0.98-0.76,1.5-1.1c0.18-0.12,0.34-0.22,0.4-0.46
			c0.4-1.56,1.45-2.54,2.89-3.16c0.12-0.05,0.23-0.11,0.41-0.21c-0.33-1.4-0.67-2.79-1.02-4.26c-0.16,0.15-0.24,0.22-0.31,0.3
			c-2.44,3.05-5.42,5.51-8.58,7.77c-0.16,0.11-0.31,0.24-0.48,0.33c-0.28,0.16-0.42,0.4-0.5,0.71c-0.2,0.8-0.54,1.54-1.02,2.21
			c-1.31,1.84-3.11,2.42-5.27,1.99c-0.46-0.09-0.76,0-1.09,0.29c-1.92,1.68-3.49,3.62-4.4,6.03c-0.72,1.89-0.96,3.84-0.61,5.83
			c0.19,1.05,0.56,2.05,1.1,3c1.27,2.21,3.31,3.22,5.63,3.85c0.19,0.05,0.38,0.08,0.56,0.15c0.48,0.19,0.72,0.64,0.61,1.14
			c-0.11,0.48-0.56,0.8-1.07,0.7c-0.5-0.09-1-0.24-1.53-0.38c-0.08,0.19-0.17,0.36-0.23,0.54c-1.06,2.9-1.71,5.89-2.09,8.96
			c-0.44,3.57-0.51,7.16-0.62,10.75c0,0.15,0,0.3-0.01,0.45c-0.06,0.55-0.46,0.91-0.99,0.9c-0.5-0.01-0.89-0.37-0.92-0.9
			c-0.03-0.54,0.02-1.07,0.01-1.61c-0.09-5.25-1.64-9.97-5.08-14c-0.11-0.13-0.23-0.25-0.35-0.38
			C53.62,68.1,53.57,68.09,53.54,68.08z"/>
		<path class="st0" d="M76.79,46.88c2.15,0.62,2.34,0.73,3.51,2.04c0.28-0.23,0.33-0.52,0.24-0.84c-0.06-0.21-0.15-0.4-0.2-0.61
			c-0.13-0.52,0.1-0.97,0.56-1.16c0.46-0.18,0.94-0.01,1.21,0.45c0.79,1.34,0.42,3.07-0.88,3.94c-0.28,0.18-0.39,0.37-0.45,0.7
			c-0.12,0.65-0.3,1.3-0.53,1.91c-0.15,0.38-0.24,0.71-0.09,1.11c0.1,0.26,0.13,0.54,0.21,0.91c0.32,0,0.63,0.01,0.95,0
			c0.6-0.03,0.97,0.25,1.17,0.8c0.16,0.42,0.36,0.83,0.51,1.25c0.21,0.58,0.02,1.09-0.47,1.31c-0.52,0.23-1.03,0-1.31-0.58
			c-0.08-0.17-0.16-0.35-0.22-0.53c-0.11-0.3-0.3-0.4-0.6-0.27c-0.22,0.78-0.45,1.56-0.7,2.43c0.18,0.09,0.4,0.21,0.63,0.31
			c0.46,0.2,0.71,0.54,0.76,1.03c0.05,0.49,0.13,0.98,0.16,1.47c0.03,0.58-0.31,0.98-0.82,1.05c-0.54,0.07-0.98-0.28-1.09-0.86
			c-0.04-0.21-0.08-0.43-0.08-0.64c0-0.39-0.21-0.59-0.58-0.66c-0.59,0.56-1.19,1.14-1.85,1.77c0.13,0.22,0.27,0.48,0.43,0.72
			c0.21,0.32,0.28,0.66,0.17,1.04c-0.13,0.45-0.21,0.92-0.33,1.38c-0.16,0.6-0.61,0.89-1.15,0.78c-0.54-0.11-0.83-0.55-0.74-1.17
			c0.03-0.21,0.06-0.43,0.14-0.63c0.2-0.49,0.05-0.87-0.36-1.25c-1.85,0.59-3.7,0.57-5.45-0.43c-1.75-1-2.72-2.57-3.15-4.51
			c-0.51-0.18-0.93-0.1-1.27,0.32c-0.14,0.16-0.3,0.31-0.47,0.44c-0.43,0.35-0.99,0.34-1.34-0.02c-0.34-0.35-0.39-0.87-0.03-1.28
			c0.41-0.46,0.86-0.9,1.34-1.29c0.19-0.16,0.52-0.17,0.79-0.2c0.27-0.03,0.55-0.01,0.87-0.01c0.18-0.83,0.35-1.64,0.52-2.43
			c-0.24-0.38-0.55-0.38-0.9-0.22c-0.23,0.11-0.47,0.2-0.72,0.27c-0.47,0.14-0.87-0.02-1.04-0.39c-0.21-0.47-0.14-1.07,0.26-1.28
			c0.6-0.32,1.25-0.57,1.89-0.81c0.35-0.13,0.67,0.05,0.96,0.27c0.17,0.13,0.36,0.23,0.42,0.2c0.62-0.56,1.24-1.12,1.88-1.7
			c-0.04-0.26-0.19-0.41-0.52-0.35c-0.23,0.04-0.47,0.06-0.71,0.07c-0.57,0.02-0.98-0.3-1.06-0.82c-0.07-0.48,0.21-0.95,0.74-1.05
			c0.61-0.12,1.23-0.18,1.85-0.24c0.38-0.03,0.65,0.17,0.85,0.48c0.19,0.31,0.38,0.62,0.59,0.94c0.41-0.12,0.81-0.22,1.18-0.36
			c0.16-0.06,0.32-0.2,0.43-0.35c0.46-0.66,0.98-1.26,1.65-1.7c0.21-0.14,0.25-0.31,0.26-0.54c0.1-1.54,1.07-2.59,2.59-2.82
			c0.13-0.02,0.26-0.03,0.39-0.03c0.56,0.01,0.96,0.37,1,0.89c0.03,0.48-0.3,0.9-0.81,1.01c-0.19,0.04-0.38,0.06-0.56,0.12
			C77.1,46.38,76.86,46.55,76.79,46.88z M68.22,57.94c0.03,0.34,0.03,0.69,0.11,1.02c0.63,2.79,3.31,4.25,6,3.28
			c2.62-0.95,4.32-3.64,4.1-6.49c-0.24-3.18-3.17-5.06-6.16-3.96C70.11,52.58,68.11,54.94,68.22,57.94z M78.74,51.65
			c0.31-1.2-0.11-2.04-1.19-2.53c-0.89-0.41-1.74-0.21-2.27,0.53C76.63,49.93,77.76,50.6,78.74,51.65z"/>
		<path class="st0" d="M47.63,61.89c0.32,0.08,0.54,0.13,0.77,0.2c0.57,0.18,0.85,0.65,0.71,1.19c-0.12,0.49-0.6,0.79-1.15,0.69
			c-0.36-0.07-0.73-0.12-1.06-0.27c-0.31-0.15-0.57-0.41-0.96-0.71c-0.19,0.07-0.5,0.18-0.89,0.32c0.18,0.16,0.32,0.27,0.44,0.4
			c0.36,0.36,0.41,0.91,0.11,1.29c-0.29,0.38-0.77,0.5-1.21,0.26c-0.37-0.21-0.77-0.42-1.06-0.73c-0.24-0.26-0.34-0.65-0.55-1.08
			c-0.1-0.02-0.32-0.06-0.61-0.11c0.08,0.2,0.14,0.33,0.18,0.47c0.11,0.42-0.06,0.84-0.41,1.06c-0.36,0.22-0.82,0.22-1.14-0.09
			c-0.34-0.33-0.66-0.69-0.91-1.08c-0.13-0.21-0.1-0.53-0.08-0.8c0.01-0.18,0.13-0.35,0.22-0.56c-0.21-0.19-0.42-0.38-0.56-0.51
			c-0.66,0.08-1.25,0.2-1.84,0.22c-0.73,0.02-1.39-0.26-1.96-0.72c-0.51-0.41-0.62-0.96-0.29-1.41c0.33-0.46,0.89-0.54,1.42-0.16
			c0.47,0.33,0.94,0.48,1.5,0.28c-0.04-0.66-0.08-1.29-0.13-1.97c-0.5-0.16-0.91,0.09-1.32,0.37c-0.23,0.15-0.47,0.31-0.73,0.36
			c-0.44,0.09-0.84-0.15-1-0.54c-0.18-0.43-0.02-0.79,0.25-1.13c0.65-0.81,1.57-1.12,2.53-1.02c0.84,0.09,1.32-0.26,1.76-0.85
			c-0.12-0.22-0.28-0.44-0.35-0.67c-0.18-0.62,0.79-2.05,1.43-2.14c0.58-0.09,1.11,0.39,1.08,0.99c-0.01,0.17-0.07,0.34-0.12,0.56
			c0.24-0.05,0.46-0.1,0.73-0.16c-0.2-1.05,0.61-1.44,1.23-1.93c0.41-0.32,0.96-0.23,1.28,0.13c0.35,0.39,0.33,0.92-0.06,1.34
			c-0.1,0.11-0.21,0.2-0.38,0.35c0.38,0.11,0.7,0.2,0.98,0.29c0.29-0.29,0.51-0.62,0.83-0.81c0.32-0.19,0.72-0.26,1.09-0.37
			c0.5-0.15,0.99,0.07,1.17,0.5c0.19,0.45-0.02,1.05-0.46,1.28c-0.22,0.12-0.47,0.19-0.77,0.32C49.37,57.16,49.58,59.44,47.63,61.89
			z M43.62,61.56c1.19-0.06,2.28-0.49,3-1.59c0.49-0.76,0.65-1.59,0.23-2.44c-0.45-0.93-1.25-1.46-2.21-1.71
			c-1.24-0.33-2.38-0.06-3.43,0.73c-1.27,0.95-1.52,2.82-0.25,4.02C41.69,61.25,42.56,61.54,43.62,61.56z"/>
	</g>
</g>
</svg>
