<?xml version="1.0" encoding="utf-8"?>
<!-- Generator: Adobe Illustrator 23.1.0, SVG Export Plug-In . SVG Version: 6.00 Build 0)  -->
<svg version="1.1" id="Layer_1" xmlns="http://www.w3.org/2000/svg" xmlns:xlink="http://www.w3.org/1999/xlink" x="0px" y="0px"
	 viewBox="0 0 111.67 111.67" style="enable-background:new 0 0 111.67 111.67;" xml:space="preserve">
<style type="text/css">
	.st0{fill:#FFFFFF;}
</style>
<g>
	<g>
		<path class="st0" d="M59.43,57.13c0,3.1,0,6.06,0,9.19c0.4,0,0.77,0,1.14,0c7.18,0,14.36,0,21.55,0c0.27,0,0.54-0.01,0.8,0.01
			c0.66,0.06,1.01,0.42,1.06,1.09c0.02,0.35,0.01,0.71,0.01,1.07c0,5.02,0,10.03,0,15.05c0,1.28-0.29,1.59-1.56,1.59
			c-10.89,0-21.78,0-32.67,0c-1.2,0-1.55-0.35-1.55-1.52c0-5.25,0-10.51,0-15.76c0-1.18,0.34-1.51,1.55-1.51
			c2.46-0.01,4.92,0,7.48,0c0.02-0.36,0.05-0.67,0.05-0.98c-0.03-2.46-0.06-4.92-0.09-7.38c0-0.32,0.06-0.66-0.36-0.81
			c-0.4-0.14-0.68-0.01-0.95,0.27c-2.91,2.94-6.46,4.86-10.24,6.39c-3.83,1.55-7.86,2.25-11.98,2.4c-1.57,0.06-3.14,0.02-4.71-0.01
			c-0.82-0.02-1.22-0.37-1.23-1.09c-0.05-4.16-0.11-8.32,0.97-12.38c3.2-12.11,10.88-20.08,22.59-24.26
			c4.7-1.68,9.59-2.16,14.56-1.8c0.99,0.07,1.39,0.39,1.4,1.24c0.04,3.89,0.08,7.77-0.82,11.6c-0.85,3.61-2.17,7.03-4.13,10.18
			c-0.33,0.52-0.4,0.91-0.1,1.52c0.66,1.35,0.58,2.7-0.22,4.06C61.36,56.27,60.68,57.02,59.43,57.13z M48.73,43.58
			c0.26-0.21,0.4-0.31,0.52-0.42c2.25-2.24,4.5-4.48,6.76-6.71c0.27-0.27,0.53-0.56,0.84-0.8c0.46-0.36,0.96-0.32,1.37,0.06
			c0.4,0.37,0.48,0.92,0.16,1.37c-0.15,0.22-0.35,0.4-0.54,0.59c-5.31,5.27-10.62,10.53-15.92,15.8c-0.18,0.18-0.33,0.38-0.59,0.66
			c0.27,0.03,0.4,0.07,0.53,0.07c2.06-0.02,4.12-0.04,6.19-0.07c0.64-0.01,0.97,0.34,1.02,1.07c0.05,0.78-0.2,1.21-0.81,1.24
			c-1,0.05-2.01,0.1-3.01,0.08c-1.7-0.04-3.4-0.07-5.1-0.23c-0.82-0.07-1.37,0.26-1.89,0.76c-0.95,0.92-1.87,1.88-2.81,2.81
			c-0.63,0.63-1.28,1.23-1.91,1.85c-0.72,0.72-1.42,1.46-2.23,2.3c0.39,0.04,0.59,0.09,0.78,0.08c2.19-0.17,4.39-0.23,6.55-0.55
			c2.67-0.4,5.26-1.18,7.69-2.41c1.47-0.75,2.98-1.45,4.36-2.34c1.3-0.84,2.44-1.91,3.67-2.87c0.37-0.29,0.41-0.55,0.2-0.98
			c-0.8-1.63-0.55-3.19,0.57-4.57c1.11-1.36,2.58-1.89,4.29-1.42c0.59,0.16,0.88,0.04,1.11-0.47c0.13-0.27,0.3-0.51,0.44-0.77
			c3.18-5.65,4.3-11.76,4.14-18.17c-0.02-0.61-0.26-0.73-0.8-0.77c-12.71-0.9-25.37,6.35-31.12,17.78
			c-1.74,3.45-2.69,7.11-3.23,10.91c-0.03,0.23,0,0.47-0.01,0.7c-0.02,0.35-0.07,0.69-0.08,1.04c-0.01,0.98,0,1.96,0,3.08
			c1.1-1.04,2.1-1.95,3.05-2.91c1.54-1.54,3.04-3.12,4.59-4.65c2.93-2.91,5.87-5.79,8.81-8.68c0.25-0.25,0.29-0.49,0.29-0.85
			c-0.04-2.64-0.03-5.28,0-7.92c0.01-0.73,0.47-1.17,1.09-1.16c0.62,0.01,1.03,0.44,1.04,1.19c0.01,1.66-0.01,3.32-0.01,4.99
			C48.73,42.67,48.73,43.04,48.73,43.58z M66.08,82.97c4.93,0,9.85,0,14.78,0c0.99,0,0.99-0.01,0.99-0.95c0-4.18,0-8.37,0-12.55
			c0-0.99,0-0.99-1.04-0.99c-9.82,0-19.64,0-29.47,0c-0.99,0-1,0-1,1.04c0,4.1,0,8.19,0,12.29c0,1.22-0.13,1.17,1.13,1.17
			C56.34,82.97,61.21,82.97,66.08,82.97z M60.47,53.02c0.01-1.08-0.92-2.07-2-2.1c-1.17-0.04-2.21,0.93-2.22,2.08
			c-0.01,1.12,0.99,2.12,2.17,2.14C59.53,55.17,60.45,54.22,60.47,53.02z"/>
		<path class="st0" d="M66.43,74.7c-3.14,0-6.28,0-9.42,0c-0.24,0-0.48,0.02-0.71-0.02c-0.59-0.09-0.95-0.54-0.92-1.11
			c0.03-0.55,0.39-0.92,0.96-0.99c0.2-0.02,0.41-0.01,0.62-0.01c6.37,0,12.74,0,19.11,0c0.24,0,0.48-0.02,0.71,0.02
			c0.54,0.11,0.81,0.47,0.82,1.01c0.01,0.54-0.24,0.92-0.77,1.05c-0.25,0.06-0.53,0.04-0.8,0.04C72.83,74.71,69.63,74.71,66.43,74.7
			z"/>
		<path class="st0" d="M66.43,76.81c3.29,0,6.58,0,9.87,0c0.87,0,1.26,0.33,1.29,1c0.03,0.6-0.31,1.03-0.91,1.12
			c-0.2,0.03-0.41,0.02-0.62,0.02c-6.37,0-12.74,0-19.12,0c-0.24,0-0.48,0.02-0.71-0.02c-0.54-0.1-0.88-0.55-0.87-1.08
			c0.02-0.54,0.38-0.95,0.92-1.02c0.26-0.03,0.53-0.02,0.8-0.02C60.21,76.81,63.32,76.81,66.43,76.81z"/>
	</g>
</g>
</svg>
