<?xml version="1.0" encoding="utf-8"?>
<!-- Generator: Adobe Illustrator 23.1.0, SVG Export Plug-In . SVG Version: 6.00 Build 0)  -->
<svg version="1.1" id="Layer_1" xmlns="http://www.w3.org/2000/svg" xmlns:xlink="http://www.w3.org/1999/xlink" x="0px" y="0px"
	 viewBox="0 0 111.67 111.67" style="enable-background:new 0 0 111.67 111.67;" xml:space="preserve">
<style type="text/css">
	.st0{fill:#FFFFFF;}
</style>
<path class="st0" d="M76.85,26.27c-6.55,0-11.76,1.64-15.48,4.86c-1.77,1.53-3.2,3.43-4.24,5.64l-0.57,1.21l-0.43,0.91l-0.29,0.61
	l-0.29-0.61l-0.43-0.91l-0.58-1.21c-1.04-2.19-2.46-4.08-4.23-5.61c-3.74-3.24-8.94-4.89-15.48-4.89c-0.53,0-0.95,0.43-0.95,0.95
	c0,5.47,2.03,10.71,5.71,14.76c3.66,4.03,8.64,6.54,14.01,7.09l0.57,0.06l0.43,0.04l0.29,0.03v0.29v0.43v0.57l0,6.63v0.2v0.15v0.1
	l-0.06,0.08l-0.09,0.12l-0.11,0.16l-2.56,3.68l-0.57,0.82l-0.43,0.62l-0.29,0.41l-0.25-0.43l-0.38-0.65l-0.5-0.87l-0.03-0.06
	c-0.13-0.23-0.36-0.4-0.62-0.46c-0.07-0.02-0.14-0.02-0.21-0.02c-0.2,0-0.38,0.06-0.54,0.17c-3.59,2.49-5.73,6.58-5.73,10.94
	c0,7.34,5.97,13.32,13.32,13.32c7.34,0,13.32-5.97,13.32-13.32c0-4.36-2.14-8.45-5.73-10.94c-0.16-0.11-0.35-0.17-0.54-0.17
	c-0.07,0-0.14,0.01-0.21,0.02c-0.26,0.06-0.48,0.22-0.62,0.45l-0.03,0.06l-0.5,0.87l-0.38,0.65l-0.25,0.43l-0.29-0.41l-0.43-0.62
	l-0.57-0.82l-2.56-3.68l-0.11-0.16l-0.09-0.12l-0.06-0.08v-0.1v-0.15v-0.2V50.5v-0.57v-0.43V49.2l0.29-0.03l0.43-0.04l0.57-0.06
	c5.37-0.55,10.35-3.07,14.01-7.09c3.68-4.05,5.71-9.29,5.71-14.76C77.8,26.69,77.37,26.27,76.85,26.27z M54.53,47.28l-0.59-0.08
	l-0.78-0.1c-8.93-1.2-16.01-8.27-17.2-17.2l-0.1-0.78l-0.08-0.59l-0.05-0.39l0.39,0.03l0.59,0.05l0.79,0.06
	c4.81,0.38,8.7,1.83,11.57,4.32c3.35,2.91,5.28,7.28,5.72,12.97l0.06,0.78l0.05,0.59l0.03,0.39L54.53,47.28z M62.23,64.96l0.45-0.79
	l0.34-0.59l0.23-0.39l0.29,0.35l0.44,0.52l0.58,0.7c1.72,2.05,2.67,4.66,2.67,7.33c0,6.29-5.12,11.41-11.41,11.41
	c-6.29,0-11.41-5.12-11.41-11.41c0-2.67,0.95-5.28,2.67-7.33l0.58-0.7l0.44-0.52l0.29-0.35l0.23,0.39l0.34,0.59l0.45,0.79l5.57,9.65
	c0.17,0.29,0.49,0.48,0.83,0.48c0.34,0,0.66-0.18,0.83-0.48L62.23,64.96z M57.01,61.24l2.3,3.32l0.23,0.33l0.17,0.25l0.12,0.17
	l-0.1,0.17l-0.15,0.26l-0.2,0.35l-2.3,3.99l-0.55,0.95l-0.41,0.72l-0.28,0.48l-0.28-0.48l-0.41-0.72l-0.55-0.95l-2.3-3.99l-0.2-0.35
	l-0.15-0.26l-0.1-0.17l0.12-0.17l0.17-0.25l0.23-0.33l2.3-3.32l0.52-0.75l0.39-0.56l0.26-0.38l0.26,0.38l0.39,0.56L57.01,61.24z
	 M75.9,28.53l-0.08,0.59l-0.1,0.78c-1.2,8.93-8.27,16.01-17.21,17.2l-0.78,0.1l-0.58,0.08l-0.39,0.05l0.03-0.39l0.05-0.59l0.06-0.78
	c0.44-5.72,2.37-10.09,5.72-13c2.85-2.47,6.74-3.92,11.57-4.29l0.79-0.06l0.59-0.05l0.39-0.03L75.9,28.53z"/>
</svg>
