<?xml version="1.0" encoding="utf-8"?>
<!-- Generator: Adobe Illustrator 23.1.0, SVG Export Plug-In . SVG Version: 6.00 Build 0)  -->
<svg version="1.1" id="Layer_1" xmlns="http://www.w3.org/2000/svg" xmlns:xlink="http://www.w3.org/1999/xlink" x="0px" y="0px"
	 viewBox="0 0 111.67 111.67" style="enable-background:new 0 0 111.67 111.67;" xml:space="preserve">
<style type="text/css">
	.st0{fill:#FFFFFF;}
</style>
<g>
	<path class="st0" d="M84.25,54.86h-7.84c-0.54,0-0.98,0.44-0.98,0.98v8.82h-6.86c-0.54,0-0.98,0.44-0.98,0.98v6.86h-6.86
		c-0.54,0-0.98,0.44-0.98,0.98v8.82H57.8v-9.8c0-0.55-0.27-1.58-2.05-2.3c-1.04-0.42-2.4-0.64-3.83-0.64
		c-1.43,0-2.79,0.23-3.83,0.64c-0.03,0.01-0.06,0.03-0.09,0.04v-2.64c0-0.55-0.27-1.58-2.05-2.3c-1.04-0.42-2.4-0.64-3.83-0.64
		c-1.43,0-2.79,0.23-3.83,0.64c-0.03,0.01-0.06,0.03-0.09,0.04V57.8c0-0.55-0.27-1.58-2.05-2.3c-1.04-0.42-2.4-0.64-3.83-0.64
		c-1.43,0-2.79,0.23-3.83,0.64c-1.78,0.71-2.05,1.74-2.05,2.3v24.49c0,0.55,0.27,1.58,2.05,2.3c1.04,0.42,2.4,0.64,3.83,0.64
		c1.43,0,2.79-0.23,3.83-0.64c0.38-0.15,0.74-0.34,1.07-0.58c0.33,0.24,0.69,0.43,1.07,0.58c1.04,0.42,2.4,0.64,3.83,0.64
		c1.43,0,2.79-0.23,3.83-0.64c0.38-0.15,0.74-0.34,1.07-0.58c0.33,0.24,0.69,0.43,1.07,0.58c1.04,0.42,2.4,0.64,3.83,0.64
		c1.43,0,2.79-0.23,3.83-0.64c0.24-0.09,0.47-0.21,0.7-0.34h27.81c0.54,0,0.98-0.44,0.98-0.98V55.84
		C85.23,55.29,84.79,54.86,84.25,54.86z M28.4,74.75c0.03,0.01,0.06,0.03,0.09,0.04c1.04,0.42,2.4,0.64,3.83,0.64
		c1.43,0,2.79-0.23,3.83-0.64c0.03-0.01,0.06-0.03,0.09-0.04v2.6c-0.17,0.3-1.53,1.02-3.92,1.02s-3.75-0.71-3.92-1.02V74.75z
		 M28.4,69.85c0.03,0.01,0.06,0.03,0.09,0.04c1.04,0.42,2.4,0.64,3.83,0.64c1.43,0,2.79-0.23,3.83-0.64
		c0.03-0.01,0.06-0.03,0.09-0.04v2.6c-0.17,0.3-1.53,1.02-3.92,1.02s-3.75-0.71-3.92-1.02V69.85z M28.4,64.95
		c0.03,0.01,0.06,0.03,0.09,0.04c1.04,0.42,2.4,0.64,3.83,0.64c1.43,0,2.79-0.23,3.83-0.64c0.03-0.01,0.06-0.03,0.09-0.04v2.6
		c-0.17,0.3-1.53,1.02-3.92,1.02s-3.75-0.71-3.92-1.02V64.95z M28.4,60.05c0.03,0.01,0.06,0.03,0.09,0.04
		c1.04,0.42,2.4,0.64,3.83,0.64c1.43,0,2.79-0.23,3.83-0.64c0.03-0.01,0.06-0.03,0.09-0.04v2.6c-0.17,0.3-1.53,1.02-3.92,1.02
		s-3.75-0.71-3.92-1.02V60.05z M42.12,73.47c-2.39,0-3.75-0.71-3.92-1.02v-2.6c0.03,0.01,0.06,0.03,0.09,0.04
		c1.04,0.42,2.4,0.64,3.83,0.64c1.43,0,2.79-0.23,3.83-0.64c0.03-0.01,0.06-0.03,0.09-0.04v2.6C45.87,72.76,44.51,73.47,42.12,73.47
		z M38.2,74.75c0.03,0.01,0.06,0.03,0.09,0.04c1.04,0.42,2.4,0.64,3.83,0.64c1.43,0,2.79-0.23,3.83-0.64
		c0.03-0.01,0.06-0.03,0.09-0.04v2.6c-0.17,0.3-1.53,1.02-3.92,1.02c-2.39,0-3.75-0.71-3.92-1.02V74.75z M48,74.75
		c0.03,0.01,0.06,0.03,0.09,0.04c1.04,0.42,2.4,0.64,3.83,0.64c1.43,0,2.79-0.23,3.83-0.64c0.03-0.01,0.06-0.03,0.09-0.04v2.6
		c-0.17,0.3-1.53,1.02-3.92,1.02c-2.39,0-3.75-0.71-3.92-1.02V74.75z M51.92,71.51c2.31,0,3.65,0.66,3.89,0.98
		c-0.25,0.32-1.6,0.98-3.89,0.98c-2.3,0-3.64-0.66-3.89-0.98C48.27,72.17,49.61,71.51,51.92,71.51z M42.12,66.61
		c2.31,0,3.65,0.66,3.89,0.98c-0.25,0.32-1.6,0.98-3.89,0.98c-2.3,0-3.64-0.66-3.89-0.98C38.48,67.27,39.82,66.61,42.12,66.61z
		 M32.32,56.82c2.31,0,3.65,0.66,3.89,0.98c-0.25,0.32-1.6,0.98-3.89,0.98s-3.64-0.66-3.89-0.98
		C28.68,57.48,30.02,56.82,32.32,56.82z M32.32,83.27c-2.39,0-3.75-0.71-3.92-1.02v-2.61c0.03,0.01,0.06,0.03,0.09,0.04
		c1.04,0.42,2.4,0.64,3.83,0.64c1.43,0,2.79-0.23,3.83-0.64c0.03-0.01,0.06-0.03,0.09-0.04v2.61
		C36.07,82.56,34.71,83.27,32.32,83.27z M42.12,83.27c-2.39,0-3.75-0.71-3.92-1.02v-2.6c0.03,0.01,0.06,0.03,0.09,0.04
		c1.04,0.42,2.4,0.64,3.83,0.64c1.43,0,2.79-0.23,3.83-0.64c0.03-0.01,0.06-0.03,0.09-0.04v2.61
		C45.86,82.56,44.51,83.27,42.12,83.27z M51.92,83.27c-2.39,0-3.75-0.71-3.92-1.02v-2.61c0.03,0.01,0.06,0.03,0.09,0.04
		c1.04,0.42,2.4,0.64,3.83,0.64c1.43,0,2.79-0.23,3.83-0.64c0.03-0.01,0.06-0.03,0.09-0.04v2.61
		C55.66,82.56,54.31,83.27,51.92,83.27z M61.71,74.45h5.88v7.84h-5.88V74.45z M69.55,66.61h5.88v15.68h-5.88V66.61z M77.39,82.29
		V56.82h5.88v25.47H77.39z"/>
	<rect x="51.92" y="65.63" class="st0" width="1.96" height="1.96"/>
	<path class="st0" d="M55.84,65.63v1.96h4.9c0.26,0,0.51-0.1,0.69-0.29l19.88-19.88v1.55h1.96v-3.92c0-0.54-0.44-0.98-0.98-0.98
		h-3.92v1.96h1.55l-19.6,19.6H55.84z"/>
	<path class="st0" d="M68.83,32.67c-4.34-4.01-10.03-6.23-15.94-6.22c-12.97,0-23.52,10.55-23.52,23.52c0,1.03,0.07,2.05,0.2,3.07
		l1.94-0.25c-0.12-0.93-0.18-1.87-0.18-2.81c0-0.33,0.01-0.65,0.02-0.98h4.39l2.65,3.53c0.19,0.25,0.48,0.39,0.78,0.39h7.28
		l2.2,3.67l-3.21,2.41c-0.25,0.19-0.39,0.48-0.39,0.78v2.94h1.96v-2.45l3.53-2.65c0.4-0.3,0.51-0.86,0.25-1.29l-2.94-4.9
		c-0.18-0.3-0.5-0.48-0.84-0.48h-7.35l-2.65-3.53c-0.19-0.25-0.48-0.39-0.78-0.39h-4.7c0.51-3.74,2-7.28,4.32-10.25l3.32,1.99v3.36
		c0,0.54,0.44,0.98,0.98,0.98h4.49l3.63,3.63c0.33,0.33,0.85,0.38,1.24,0.12l5.88-3.92c0.27-0.18,0.44-0.49,0.44-0.82v-5.47
		l6.21-6.21c1.52,0.71,2.96,1.6,4.27,2.65l-5.23,4.36c-0.33,0.27-0.44,0.72-0.28,1.12l1.76,4.39l-2.32,3.09h-4.41
		c-0.21,0-0.42,0.07-0.59,0.2l-3.92,2.94c-0.42,0.31-0.52,0.89-0.23,1.33l3.92,5.88c0.18,0.27,0.49,0.44,0.82,0.44h2.94v5.88h1.96
		v-6.86c0-0.54-0.44-0.98-0.98-0.98h-3.39l-3.11-4.67L56.16,48h4.57c0.31,0,0.6-0.15,0.78-0.39l2.94-3.92
		c0.21-0.27,0.25-0.63,0.13-0.95l-1.7-4.24l4.92-4.1c3.78,3.61,6.11,8.48,6.56,13.69l1.95-0.17C75.82,42.07,73.15,36.63,68.83,32.67
		z M54.16,35.55c-0.18,0.18-0.29,0.43-0.29,0.69v5.35l-4.77,3.18l-3.35-3.35c-0.18-0.18-0.43-0.29-0.69-0.29h-3.92V38.2
		c0-0.34-0.18-0.66-0.48-0.84l-3.51-2.11C43,28.99,52,26.78,60.08,29.63L54.16,35.55z"/>
</g>
</svg>
