<?xml version="1.0" encoding="utf-8"?>
<!-- Generator: Adobe Illustrator 23.1.0, SVG Export Plug-In . SVG Version: 6.00 Build 0)  -->
<svg version="1.1" id="Layer_1" xmlns="http://www.w3.org/2000/svg" xmlns:xlink="http://www.w3.org/1999/xlink" x="0px" y="0px"
	 viewBox="0 0 111.67 111.67" style="enable-background:new 0 0 111.67 111.67;" xml:space="preserve">
<style type="text/css">
	.st0{fill:#FFFFFF;}
</style>
<g>
	<path class="st0" d="M75.4,36.41L75.4,36.41c1.8-0.01,3.38-1.21,3.87-2.93h6.03v-2.2h-6.03c-0.49-1.72-2.06-2.93-3.87-2.93
		c-2.22,0-4.03,1.81-4.03,4.03c0,0.69,0.18,1.36,0.52,1.95l-1.55,1.55c-3.99-5.14-9.74-8.44-16.2-9.29
		c-6.51-0.86-12.95,0.87-18.16,4.87c-5.2,4-8.54,9.78-9.4,16.28c-0.86,6.51,0.87,12.95,4.87,18.16c3.77,4.91,9.21,8.2,15.31,9.25
		c6.07,1.05,12.26-0.21,17.44-3.54l12.13,12.13c1.02,1.02,2.37,1.53,3.71,1.53s2.69-0.51,3.71-1.53c2.05-2.05,2.05-5.38,0-7.42
		L71.63,64.2c5.19-8.06,5.19-18.44,0-26.5l1.82-1.82C74.04,36.22,74.72,36.41,75.4,36.41z M82.26,82.2
		c-0.57,0.58-1.33,0.91-2.15,0.92c-0.81,0.01-1.58-0.3-2.17-0.87c-0.02-0.02-0.03-0.03-0.05-0.05l-7.78-7.78l4.31-4.31l7.78,7.78
		c0.58,0.57,0.91,1.33,0.92,2.15C83.14,80.85,82.83,81.62,82.26,82.2z M66.16,70.23c0.06-0.05,0.11-0.09,0.17-0.14
		c0.14-0.11,0.29-0.24,0.44-0.36c0.24-0.21,0.45-0.38,0.64-0.55c0.07-0.06,0.13-0.12,0.2-0.19l0.11-0.11
		c0.4-0.38,0.79-0.77,1.17-1.17L69,67.6c0.06-0.06,0.12-0.13,0.18-0.2c0.17-0.19,0.35-0.4,0.55-0.64c0.12-0.15,0.25-0.29,0.36-0.44
		c0.05-0.06,0.09-0.11,0.14-0.17c0.03-0.04,0.07-0.08,0.1-0.12l2.52,2.52l-4.31,4.31l-2.52-2.52C66.08,70.3,66.12,70.27,66.16,70.23
		z M68.2,65.19c-0.06,0.08-0.13,0.15-0.19,0.22c-0.04,0.04-0.07,0.08-0.11,0.12c-0.3,0.35-0.61,0.69-0.92,1.01
		c-0.14,0.14-0.28,0.28-0.42,0.42c-0.32,0.32-0.66,0.63-1.01,0.92c-0.06,0.05-0.11,0.1-0.17,0.15c-0.06,0.05-0.12,0.1-0.18,0.15
		c-0.37,0.3-0.78,0.62-1.25,0.96c-10.05,7.18-24.07,4.84-31.25-5.21c-3.48-4.87-4.85-10.8-3.87-16.7c0.98-5.9,4.21-11.07,9.07-14.55
		c3.84-2.74,8.34-4.18,12.97-4.18c1.24,0,2.48,0.1,3.73,0.31c5.9,0.98,11.07,4.21,14.55,9.07c5.56,7.79,5.56,18.25,0,26.04
		C68.81,64.41,68.5,64.82,68.2,65.19z M73.57,32.38c0-1.01,0.82-1.83,1.83-1.83s1.83,0.82,1.83,1.83c0,1.01-0.82,1.83-1.83,1.83
		S73.57,33.39,73.57,32.38z"/>
	<path class="st0" d="M66.16,40.27l-0.09-0.13l-2.41,2.41c-0.59-0.34-1.27-0.52-1.95-0.52c-2.23,0-4.04,1.81-4.04,4.04
		c0,0.68,0.18,1.36,0.52,1.95l-6.26,6.26c-1.21-0.7-2.69-0.7-3.91,0l-4.3-4.3c0.34-0.59,0.52-1.27,0.52-1.95
		c0-2.22-1.8-4.04-4.03-4.04c0,0,0,0-0.01,0c-1.81,0-3.39,1.2-3.88,2.93H32.9l-0.02,0.1c-0.14,0.65-0.25,1.31-0.32,1.97l-0.02,0.15
		h3.8c0.49,1.73,2.07,2.93,3.87,2.93h0c0.68,0,1.36-0.18,1.95-0.52l4.3,4.3c-0.34,0.59-0.52,1.27-0.52,1.95
		c0,2.23,1.81,4.04,4.04,4.04c2.23,0,4.04-1.81,4.04-4.04c0-0.69-0.18-1.36-0.52-1.95l6.26-6.26c0.59,0.34,1.27,0.52,1.95,0.52
		c2.23,0,4.04-1.81,4.04-4.04c0-0.68-0.18-1.36-0.52-1.95l2.05-2.05l-0.05-0.09C66.91,41.38,66.55,40.81,66.16,40.27z M42.03,48.02
		c0,1.01-0.82,1.82-1.82,1.82s-1.82-0.82-1.82-1.82s0.82-1.82,1.82-1.82S42.03,47.01,42.03,48.02z M51.81,57.8
		c0,1.01-0.82,1.82-1.82,1.82c-1.01,0-1.82-0.82-1.82-1.82c0-1.01,0.82-1.82,1.82-1.82C50.99,55.97,51.81,56.79,51.81,57.8z
		 M63.54,46.06c0,1.01-0.82,1.82-1.82,1.82s-1.82-0.82-1.82-1.82c0-1.01,0.82-1.82,1.82-1.82S63.54,45.06,63.54,46.06z"/>
</g>
</svg>
